<svg version="1.1" id="Layer_1" xmlns:x="ns_extend;" xmlns:i="ns_ai;" xmlns:graph="ns_graphs;" xmlns="http://www.w3.org/2000/svg" xmlns:xlink="http://www.w3.org/1999/xlink" x="0px" y="0px" viewBox="0 0 45.7 40" style="enable-background:new 0 0 45.7 40;" xml:space="preserve">
 <style type="text/css">
  .st0{fill:#C40D2E;}
 </style>
 <metadata>
  <sfw xmlns="ns_sfw;">
   <slices>
   </slices>
   <sliceSourceBounds bottomLeftOrigin="true" height="40" width="45.7" x="296.5" y="-260.3">
   </sliceSourceBounds>
  </sfw>
 </metadata>
 <g>
  <path class="st0" d="M7.8,18.7c0-8.5,5.9-16.9,15.3-16.9c9.6,0,15.3,8,15.3,16.9c0,8.7-4.6,15.5-11.2,20.6l0.2,0.7h15.1l3.2-6.4
		h-1.6l-2.1,3.2h-7.8c5.9-3.9,9.6-10.5,9.8-17.6C44.1,7.1,33.6,0,22.9,0S1.6,7.1,1.6,19.2c0.2,7.1,3.9,13.7,9.8,17.6H3.7l-2.1-3.2H0
		L3.2,40h15.1l0.5-0.7C12.3,34.3,7.8,27.2,7.8,18.7z">
  </path>
 </g>
</svg>