<?xml version="1.0" encoding="utf-8"?>
<!-- Generator: Adobe Illustrator 26.1.0, SVG Export Plug-In . SVG Version: 6.00 Build 0)  -->
<svg version="1.1" id="Layer_1" xmlns="http://www.w3.org/2000/svg" xmlns:xlink="http://www.w3.org/1999/xlink" x="0px" y="0px"
	 viewBox="0 0 1080 1080" style="enable-background:new 0 0 1080 1080;" xml:space="preserve">
<style type="text/css">
	.st0{fill:#A37E2C;}
	.st1{fill:#006039;}
</style>
<g>
	<path class="st0" d="M444.7,398.8c1.6,0,2.3,0,3.1-0.8l40.5,135.4l0,0c4.7,14.8,26.5,26.5,52.9,26.5c26.5,0,48.3-11.7,52.9-26.5
		l0,0l39.7-135.4c0.8,0,2.3,0,3.1,0c7.8,0,14-6.2,14-14c0-7.8-6.2-14-14-14c-7.8,0-14,6.2-14,14c0,5.4,3.1,10.1,7.8,12.5l-45.9,98.8
		l7.8-133.1l0,0c7.8,0,14-6.2,14-14c0-7.8-6.2-14-14-14s-14,6.2-14,14c0,6.2,4.7,11.7,10.1,13.2l-30.4,130L542.7,349
		c7-0.8,11.7-7,11.7-14c0-7.8-6.2-14-14-14s-14,6.2-14,14c0,7,5.4,13.2,11.7,14l-14.8,143.2l-29.6-130c6.2-1.6,10.1-7,10.1-13.2
		c0-7.8-6.2-14-14-14c-7.8,0-14,6.2-14,14s6.2,14,14,14l0,0l7.8,133.1l-45.9-98.8c4.7-2.3,7.8-7,7.8-12.5c0-7.8-6.2-14-14-14
		c-7.8,0-14,6.2-14,14C430.6,392.6,436.9,398.8,444.7,398.8z M541.2,521.8c24.1,0,43.6,6.2,43.6,14c0,7.8-19.5,14-43.6,14
		s-43.6-6.2-43.6-14C496.8,528,517,521.8,541.2,521.8z"/>
	<g>
		<path class="st1" d="M290.5,745.2l-8.6-25.7c-3.9-11.7-7-16.3-13.2-22.6c-3.9-3.9-10.1-5.4-14.8-7c16.3-2.3,28.8-17.1,28.8-34.2
			c0-18.7-15.6-34.2-34.2-34.2h-0.8l0,0h-52.1h-31.1h-18.7v10.1h18.7v113.6H145v10.1h49.8l0,0h19.5v-10.1h-18.7v-54.5h14.8
			c0.8,0,0.8,0,1.6,0h3.1c4.7,0,8.6,0.8,12.5,1.6c3.1,0.8,7,2.3,9.3,3.9c3.1,2.3,7,5.4,10.1,10.1c0.8,1.6,1.6,3.1,2.3,3.9
			c5.4,10.9,9.3,25.7,13.2,44.4h23.3l0,0h21v-10.1L290.5,745.2L290.5,745.2z M228.3,680.6h-32.7v-49h32.7
			c14,0.8,24.9,10.1,24.9,24.1C253.2,669.7,242.3,679.8,228.3,680.6z"/>
		<path class="st1" d="M386.3,616.8c-40.5,0-72.4,32.7-72.4,71.6c0,38.9,32.7,71.6,72.4,71.6c40.5,0,72.4-32.7,72.4-71.6
			C458.7,649.5,426.8,616.8,386.3,616.8z M416.6,729.6c-2.3,3.1-5.4,6.2-8.6,8.6c-5.4,3.9-11.7,7-17.9,7c-1.6,0-2.3,0-3.9,0
			c-1.6,0-2.3,0-3.9,0c-6.2,0-12.5-3.1-17.9-7c-3.1-2.3-6.2-5.4-8.6-8.6c-7.8-10.1-12.5-24.9-12.5-41.3c0-15.6,3.9-28.8,10.9-39.7
			c3.9-7,9.3-12.5,17.1-15.6l0,0c0,0,0.8,0,0.8-0.8c0.8-0.8,1.6-0.8,3.1-0.8c3.1-0.8,7-1.6,10.1-1.6c3.9,0,7,0.8,10.1,1.6
			c0.8,0,2.3,0.8,3.1,0.8c0,0,0.8,0,0.8,0.8l0,0c7,3.1,13.2,8.6,17.1,15.6c7,10.1,10.9,24.1,10.9,39.7
			C429.1,704.7,424.4,719.5,416.6,729.6z"/>
		<path class="st1" d="M602.7,703.2h-10.1v20.2c0,12.5-10.1,21.8-22.6,21.8l0,0l0,0h-31.1h-11.7V631.6h19.5v-10.1h-19.5l0,0h-2.3
			h-48.3v10.1H496v113.6h-19.5v10.1h116h8.6h0.8h0.8l0,0l0,0v-32.7l0,0C602.7,722.6,602.7,703.2,602.7,703.2z"/>
		<path class="st1" d="M756.8,622.2L756.8,622.2H756h-31.1H624.4v10.1h19.5V746h-19.5v10.1l0,0h100.4h22.6h8.6h0.8l0,0h0.8v-32.7
			v-14.8h-10.1v15.6l0,0c0,12.5-10.1,21.8-22.6,21.8l0,0l0,0H689l0,0h-14h-0.8v-54.5v-2.3h10.1l0,0h6.2l0,0
			c9.3,0,16.3,7.8,16.3,16.3l0,0l0,0v5.4l0,0v2.3h9.3v-0.8v-23.3l0,0v-8.6l0,0V658v-0.8H707v6.2l0,0l0,0c0,9.3-7,15.6-16.3,15.6l0,0
			h-6.2h-6.2h-3.9v-48.3h0.8h28.8c0,0,0,0,0.8,0h20.2c12.5,0,21.8,10.1,22.6,21.8l0,0v14h10.1v-13.2L756.8,622.2L756.8,622.2
			L756.8,622.2z"/>
		<path class="st1" d="M930.3,746c-9.3,0-11.7-3.1-19.5-11.7L866.5,679l29.6-35l0,0c7.8-9.3,10.1-12.5,20.2-12.5h6.2h1.6v-10.1h-1.6
			H893h-1.6h-21h-0.8v10.1h1.6h10.9l0,0l0,0c2.3,0,4.7,2.3,4.7,4.7c0,0.8,0,1.6-0.8,2.3l-25.7,31.1l-21.8-24.9l-3.9-5.4
			c-0.8-0.8-0.8-1.6-0.8-3.1c0-2.3,2.3-4.7,4.7-4.7h11.7v-10.1h-21h-30.4h-16.3v10.1h3.1c8.6,0.8,10.9,3.1,17.9,10.9l38.9,49l-35,42
			l0,0c-7.8,9.3-10.1,12.5-20.2,12.5h-6.2h-2.3v10.1h2.3h33.5h2.3h17.9h2.3V746h-2.3h-12.5l0,0l0,0c-2.3,0-4.7-2.3-4.7-4.7
			c0-0.8,0.8-2.3,0.8-3.1l31.1-37.4l25.7,32.7l3.9,4.7c0.8,0.8,0.8,1.6,0.8,3.1c0,2.3-2.3,4.7-4.7,4.7l0,0l0,0h-12.5v10.1l0,0l0,0
			H935V746H930.3L930.3,746z"/>
	</g>
</g>
</svg>
